<svg width="21" height="22" viewBox="0 0 21 22" fill="none" xmlns="http://www.w3.org/2000/svg">
<path d="M1.83936 10.4707C1.83936 5.6382 5.75686 1.7207 10.5894 1.7207C15.4219 1.7207 19.3394 5.6382 19.3394 10.4707V12.4707H16.7144C16.3694 12.4707 16.0894 12.7507 16.0894 13.0957V19.8457C16.0894 20.1907 16.3694 20.4707 16.7144 20.4707H17.7144C18.4769 20.4707 19.2081 20.1678 19.7473 19.6286C20.2865 19.0895 20.5894 18.3582 20.5894 17.5957V10.4707C20.5894 4.9477 16.1124 0.470703 10.5894 0.470703C5.06636 0.470703 0.589355 4.9477 0.589355 10.4707V17.5957C0.589355 18.3582 0.892256 19.0895 1.43142 19.6286C1.97059 20.1678 2.70186 20.4707 3.46436 20.4707H4.46436C4.80936 20.4707 5.08936 20.1907 5.08936 19.8457V13.0957C5.08936 12.7507 4.80936 12.4707 4.46436 12.4707H1.83936V10.4707ZM17.3394 13.7207H19.3394V17.5957C19.3394 18.0267 19.1681 18.44 18.8634 18.7448C18.5587 19.0495 18.1453 19.2207 17.7144 19.2207H17.3394V13.7207ZM1.83936 13.7207H3.83936V19.2207H3.46436C3.03338 19.2207 2.62005 19.0495 2.31531 18.7448C2.01056 18.44 1.83936 18.0267 1.83936 17.5957V13.7207ZM9.96436 10.0957V20.8457C9.96436 21.0115 10.0302 21.1704 10.1474 21.2876C10.2646 21.4049 10.4236 21.4707 10.5894 21.4707C10.7551 21.4707 10.9141 21.4049 11.0313 21.2876C11.1485 21.1704 11.2144 21.0115 11.2144 20.8457V10.0957C11.2144 9.92994 11.1485 9.77097 11.0313 9.65376C10.9141 9.53655 10.7551 9.4707 10.5894 9.4707C10.4236 9.4707 10.2646 9.53655 10.1474 9.65376C10.0302 9.77097 9.96436 9.92994 9.96436 10.0957V10.0957ZM7.71436 12.4707C8.05936 12.4707 8.33936 12.7507 8.33936 13.0957V17.8457C8.33936 18.0115 8.27351 18.1704 8.1563 18.2876C8.03909 18.4049 7.88012 18.4707 7.71436 18.4707C7.5486 18.4707 7.38962 18.4049 7.27241 18.2876C7.1552 18.1704 7.08936 18.0115 7.08936 17.8457V13.0957C7.08936 12.7507 7.36936 12.4707 7.71436 12.4707ZM14.0894 13.0957C14.0894 12.9299 14.0235 12.771 13.9063 12.6538C13.7891 12.5366 13.6301 12.4707 13.4644 12.4707C13.2986 12.4707 13.1396 12.5366 13.0224 12.6538C12.9052 12.771 12.8394 12.9299 12.8394 13.0957V17.8457C12.8394 18.0115 12.9052 18.1704 13.0224 18.2876C13.1396 18.4049 13.2986 18.4707 13.4644 18.4707C13.6301 18.4707 13.7891 18.4049 13.9063 18.2876C14.0235 18.1704 14.0894 18.0115 14.0894 17.8457V13.0957Z" fill="white"/>
</svg>
