<svg width="24" height="24" viewBox="0 0 24 24" fill="none" xmlns="http://www.w3.org/2000/svg">
<path d="M10.3333 3.66667C10.3333 2.69421 9.94703 1.76158 9.25939 1.07394C8.57176 0.386309 7.63913 0 6.66667 0C5.69421 0 4.76158 0.386309 4.07394 1.07394C3.38631 1.76158 3 2.69421 3 3.66667C3 4.63913 3.38631 5.57176 4.07394 6.25939C4.76158 6.94703 5.69421 7.33333 6.66667 7.33333C7.63913 7.33333 8.57176 6.94703 9.25939 6.25939C9.94703 5.57176 10.3333 4.63913 10.3333 3.66667ZM4.33333 3.66667C4.33333 3.36025 4.39369 3.05683 4.51095 2.77374C4.62821 2.49065 4.80008 2.23342 5.01675 2.01675C5.23342 1.80008 5.49065 1.62821 5.77374 1.51095C6.05683 1.39369 6.36025 1.33333 6.66667 1.33333C6.97308 1.33333 7.2765 1.39369 7.55959 1.51095C7.84269 1.62821 8.09991 1.80008 8.31658 2.01675C8.53325 2.23342 8.70512 2.49065 8.82239 2.77374C8.93965 3.05683 9 3.36025 9 3.66667C9 4.28551 8.75417 4.879 8.31658 5.31658C7.879 5.75417 7.28551 6 6.66667 6C6.04783 6 5.45434 5.75417 5.01675 5.31658C4.57917 4.879 4.33333 4.28551 4.33333 3.66667ZM2 8.66667H7.57733C7.35867 9.08 7.196 9.528 7.1 10H2C1.82319 10 1.65362 10.0702 1.5286 10.1953C1.40357 10.3203 1.33333 10.4899 1.33333 10.6667V11.3333C1.33333 13.0133 2.79867 14.8187 5.46133 15.24C5.032 15.5333 4.67467 15.924 4.42 16.3787C1.60667 15.6173 0 13.4493 0 11.3333V10.6667C0 10.1362 0.210714 9.62753 0.585787 9.25245C0.960859 8.87738 1.46957 8.66667 2 8.66667ZM9.172 8.66667C9.844 7.85333 10.8613 7.33333 12 7.33333C12.7985 7.33194 13.5755 7.59181 14.2125 8.07329C14.8495 8.55477 15.3115 9.23142 15.528 10C15.721 10.686 15.7101 11.4133 15.4967 12.0933C15.2833 12.7732 14.8766 13.3763 14.3262 13.829C13.7758 14.2816 13.1056 14.5643 12.3973 14.6425C11.689 14.7207 10.9732 14.5911 10.3373 14.2693C9.84775 14.0202 9.42042 13.6642 9.0869 13.2277C8.75339 12.7911 8.52222 12.2853 8.41047 11.7474C8.29873 11.2095 8.30927 10.6535 8.44131 10.1202C8.57335 9.58698 8.82352 9.09023 9.17333 8.66667H9.172ZM9.892 10C9.76068 10.277 9.6852 10.5772 9.66988 10.8833C9.65456 11.1895 9.69969 11.4957 9.8027 11.7844C9.90571 12.0731 10.0646 12.3388 10.2702 12.5661C10.4759 12.7934 10.7243 12.978 11.0013 13.1093C11.2783 13.2407 11.5785 13.3161 11.8847 13.3315C12.1908 13.3468 12.497 13.3016 12.7858 13.1986C13.0745 13.0956 13.3401 12.9367 13.5674 12.7311C13.7947 12.5254 13.9793 12.277 14.1107 12C14.3759 11.4404 14.4079 10.7984 14.1998 10.2151C13.9916 9.63187 13.5603 9.15522 13.0007 8.89C12.4411 8.62478 11.799 8.59273 11.2158 8.8009C10.6325 9.00906 10.1559 9.44039 9.89067 10H9.892ZM19.58 16.3787C19.326 15.9238 18.9695 15.5343 18.5387 15.2413C21.2 14.8187 22.6667 13.012 22.6667 11.3333V10.6667C22.6667 10.4899 22.5964 10.3203 22.4714 10.1953C22.3464 10.0702 22.1768 10 22 10H16.9C16.8058 9.53511 16.6455 9.08611 16.424 8.66667H22C22.5304 8.66667 23.0391 8.87738 23.4142 9.25245C23.7893 9.62753 24 10.1362 24 10.6667V11.3333C24 13.4493 22.392 15.616 19.58 16.3787ZM17.9827 16.4947C17.6188 16.1752 17.1509 15.9993 16.6667 16H7.33333C7.07049 15.9993 6.8101 16.0505 6.56713 16.1508C6.32417 16.2511 6.10341 16.3984 5.91755 16.5842C5.73169 16.7701 5.5844 16.9908 5.48414 17.2338C5.38388 17.4768 5.33263 17.7372 5.33333 18V18.6667C5.33333 21.2947 7.81333 24 12 24C16.1867 24 18.6667 21.2947 18.6667 18.6667V18C18.6667 17.4 18.4027 16.8613 17.9827 16.4933V16.4947ZM6.66667 18C6.66667 17.8232 6.73691 17.6536 6.86193 17.5286C6.98695 17.4036 7.15652 17.3333 7.33333 17.3333H16.6667C16.8435 17.3333 17.013 17.4036 17.1381 17.5286C17.2631 17.6536 17.3333 17.8232 17.3333 18V18.6667C17.3333 20.584 15.424 22.6667 12 22.6667C8.576 22.6667 6.66667 20.584 6.66667 18.6667V18ZM17.3333 0C18.3058 0 19.2384 0.386309 19.9261 1.07394C20.6137 1.76158 21 2.69421 21 3.66667C21 4.63913 20.6137 5.57176 19.9261 6.25939C19.2384 6.94703 18.3058 7.33333 17.3333 7.33333C16.3609 7.33333 15.4282 6.94703 14.7406 6.25939C14.053 5.57176 13.6667 4.63913 13.6667 3.66667C13.6667 2.69421 14.053 1.76158 14.7406 1.07394C15.4282 0.386309 16.3609 0 17.3333 0ZM17.3333 1.33333C16.7145 1.33333 16.121 1.57917 15.6834 2.01675C15.2458 2.45434 15 3.04783 15 3.66667C15 4.28551 15.2458 4.879 15.6834 5.31658C16.121 5.75417 16.7145 6 17.3333 6C17.9522 6 18.5457 5.75417 18.9832 5.31658C19.4208 4.879 19.6667 4.28551 19.6667 3.66667C19.6667 3.04783 19.4208 2.45434 18.9832 2.01675C18.5457 1.57917 17.9522 1.33333 17.3333 1.33333Z" fill="white" fill-opacity="0.6"/>
</svg>
