<svg width="24" height="24" viewBox="0 0 24 24" fill="none" xmlns="http://www.w3.org/2000/svg">
<path d="M22.2858 18.8571C22.2858 19.7664 21.9246 20.6385 21.2816 21.2815C20.6386 21.9244 19.7665 22.2857 18.8572 22.2857H16.2858C16.0585 22.2857 15.8404 22.1954 15.6797 22.0346C15.5189 21.8739 15.4286 21.6558 15.4286 21.4285V14.5714C15.4286 14.344 15.5189 14.126 15.6797 13.9653C15.8404 13.8045 16.0585 13.7142 16.2858 13.7142H20.5715V11.9999C20.5715 7.26595 16.7341 3.42852 12.0001 3.42852C7.26607 3.42852 3.42864 7.26595 3.42864 11.9999V13.7142H7.71436C7.94168 13.7142 8.1597 13.8045 8.32045 13.9653C8.48119 14.126 8.5715 14.344 8.5715 14.5714V21.4285C8.5715 21.6558 8.48119 21.8739 8.32045 22.0346C8.1597 22.1954 7.94168 22.2857 7.71436 22.2857H5.14293C4.23361 22.2857 3.36154 21.9244 2.71856 21.2815C2.07558 20.6385 1.71436 19.7664 1.71436 18.8571V11.9999C1.71436 6.31966 6.31978 1.71423 12.0001 1.71423C17.6804 1.71423 22.2858 6.31966 22.2858 11.9999V18.8571Z" fill="#FF8200"/>
</svg>
