<svg width="24" height="24" viewBox="0 0 24 24" fill="none" xmlns="http://www.w3.org/2000/svg">
<path d="M6.61725 11.4499V5.11726C6.61725 5.11726 9.67575 6.59401 8.02688 9.85388C7.97213 9.96263 8.44687 10.0796 8.50837 9.97463C11.8725 4.20601 7.4235 4.59938 6.61725 0.749634H4.97662V9.55426C4.66387 9.45451 4.11 9.39901 3.75038 9.39901C-0.250125 9.39901 -0.250125 13.5 3.75038 13.5C5.21663 13.5 6.61725 12.582 6.61725 11.4499ZM20.1173 0.750009H18.4755V9.55463C18.1628 9.45488 17.6089 9.39938 17.2493 9.39938C13.2495 9.39938 13.2495 13.5004 17.2493 13.5004C18.7162 13.5004 20.1169 12.582 20.1169 11.4499V5.11726C20.1169 5.11726 23.1746 6.59438 21.5261 9.85388C21.4718 9.96263 21.9458 10.0796 22.0072 9.97463C25.3725 4.20676 20.9239 4.60013 20.1173 0.750009ZM9.85163 10.5V19.3046C9.53813 19.2049 8.98425 19.1494 8.62537 19.1494C4.62487 19.1494 4.62487 23.2504 8.62537 23.2504C10.0916 23.2504 11.4923 22.3324 11.4923 21.1999V14.8673C11.4923 14.8673 14.55 16.344 12.9015 19.6043C12.8471 19.7123 13.3211 19.8296 13.3826 19.7243C16.7471 13.9568 12.2985 14.3501 11.4923 10.5H9.85163Z" fill="#FF8200"/>
</svg>
