<svg width="24" height="25" viewBox="0 0 24 25" fill="none" xmlns="http://www.w3.org/2000/svg">
<path d="M18.9398 17.8201L24 22.879L22.3282 24.5508L17.2693 19.4906C15.3869 20.9996 13.0456 21.8203 10.6331 21.8169C4.76361 21.8169 0 17.0533 0 11.1838C0 5.31439 4.76361 0.550781 10.6331 0.550781C16.5025 0.550781 21.2661 5.31439 21.2661 11.1838C21.2696 13.5964 20.4488 15.9377 18.9398 17.8201ZM16.5699 16.9434C18.0692 15.4015 18.9066 13.3346 18.9032 11.1838C18.9032 6.61399 15.2017 2.91368 10.6331 2.91368C6.06321 2.91368 2.3629 6.61399 2.3629 11.1838C2.3629 15.7525 6.06321 19.454 10.6331 19.454C12.7838 19.4574 14.8507 18.62 16.3926 17.1206L16.5699 16.9434Z" fill="#6B6A6A"/>
</svg>
