<svg width="235" height="228" viewBox="0 0 235 228" fill="none" xmlns="http://www.w3.org/2000/svg">
<path d="M93.1594 133.963C105.077 146.42 124.79 146.864 137.24 134.954C153.848 119.066 154.411 92.7766 138.525 76.1703C122.639 59.564 96.3382 58.9727 79.7423 74.8488C58.9883 94.7026 58.2702 127.567 78.1366 148.334C98.0029 169.101 130.867 169.84 151.621 149.986C176.521 126.166 177.383 86.7146 153.548 61.799C129.713 36.8834 90.2619 35.9965 65.362 59.8165C36.304 87.6142 35.2985 133.629 63.1137 162.705C90.9289 191.782 136.943 192.816 166.001 165.018C199.205 133.254 200.354 80.6525 168.571 47.4277C136.787 14.2029 84.1856 13.0204 50.9817 44.7842C13.6196 80.5258 12.339 139.679 48.0914 177.053C83.8438 214.426 143.008 215.756 180.358 180.026C221.866 140.318 223.302 74.59 183.57 33.0559C143.837 -8.47818 78.1093 -9.95581 36.6013 29.7519C-9.05254 73.4257 -10.6328 145.741 33.0685 191.424C76.7698 237.107 149.084 238.732 194.738 195.058C244.55 147.407 246.274 68.528 198.592 18.6846" stroke="url(#paint0_linear_427_3779)" stroke-width="1.76239" stroke-miterlimit="10"/>
<defs>
<linearGradient id="paint0_linear_427_3779" x1="205.783" y1="26.2008" x2="33.0685" y2="191.424" gradientUnits="userSpaceOnUse">
<stop stop-color="#7A66AC"/>
<stop offset="1" stop-color="#A84B66"/>
</linearGradient>
</defs>
</svg>
